<?xml version="1.0" standalone="no"?>
<!DOCTYPE svg PUBLIC "-//W3C//DTD SVG 20010904//EN"
 "http://www.w3.org/TR/2001/REC-SVG-20010904/DTD/svg10.dtd">
<svg version="1.0" xmlns="http://www.w3.org/2000/svg"
 width="542.000000pt" height="542.000000pt" viewBox="0 0 542.000000 542.000000"
 preserveAspectRatio="xMidYMid meet">
<metadata>
Created by potrace 1.11, written by Peter Selinger 2001-2013
</metadata>
<g transform="translate(0.000000,542.000000) scale(0.100000,-0.100000)"
fill="#000000" stroke="none">
<path d="M2630 4784 c-8 -3 -22 -8 -30 -11 -8 -4 -18 -7 -21 -7 -4 -1 -25 -15
-47 -33 -129 -104 -111 -314 36 -400 57 -34 166 -38 225 -9 60 30 121 103 133
161 33 157 -75 299 -231 303 -27 0 -57 -2 -65 -4z"/>
<path d="M1328 4254 c-49 -15 -138 -91 -138 -119 0 -8 -4 -15 -8 -15 -11 0
-12 -8 -16 -90 -2 -36 1 -71 7 -77 5 -7 7 -13 3 -13 -10 0 45 -83 68 -101 57
-47 153 -72 216 -56 43 11 92 39 124 73 120 127 65 345 -101 397 -59 19 -94
19 -155 1z"/>
<path d="M3900 4257 c-19 -5 -42 -15 -51 -23 -8 -8 -19 -14 -24 -14 -4 0 -19
-12 -32 -27 -114 -128 -74 -327 80 -393 100 -43 203 -21 278 61 84 91 80 246
-7 333 -29 28 -104 72 -104 60 0 -4 -6 -1 -14 5 -15 13 -74 12 -126 -2z"/>
<path d="M2675 4220 c-4 -6 -10 -8 -15 -5 -21 13 -62 -48 -94 -136 -132 -363
-268 -576 -406 -636 -19 -8 -55 -15 -80 -15 -49 0 -150 29 -150 43 0 5 -4 8
-8 6 -16 -4 -147 101 -220 176 -40 41 -85 79 -100 85 -61 21 -110 -10 -139
-87 -80 -212 -208 -383 -334 -447 -27 -13 -51 -24 -54 -24 -3 0 -6 0 -7 -1
-33 -10 -148 -14 -193 -6 -58 10 -96 20 -101 28 -3 5 -13 9 -23 9 -10 0 -46
14 -81 31 -96 46 -128 45 -177 -7 -28 -30 -25 -80 10 -157 15 -32 27 -62 27
-67 0 -6 5 -10 12 -10 6 0 9 -3 6 -6 -6 -5 47 -131 109 -264 14 -30 26 -61 26
-67 0 -7 5 -13 10 -13 6 0 8 -2 5 -6 -3 -3 7 -32 23 -65 16 -32 29 -63 29 -68
0 -16 53 -52 67 -47 7 3 13 1 13 -5 0 -5 10 -7 23 -5 40 8 57 18 50 30 -4 6
-1 6 9 -2 13 -10 17 -10 22 3 4 11 2 14 -6 9 -7 -4 -8 -3 -4 4 5 8 13 9 24 3
18 -10 47 11 34 24 -4 4 0 6 8 3 8 -3 21 2 28 11 11 13 12 13 7 1 -5 -12 -4
-12 7 1 7 9 19 14 25 12 7 -3 16 2 19 11 3 9 10 14 14 11 5 -3 11 -1 15 5 3 5
16 10 29 10 12 0 26 3 30 7 3 4 12 8 19 9 12 2 110 31 137 41 8 4 20 7 25 8 6
2 30 8 55 16 52 14 56 15 93 23 16 3 43 10 60 15 18 6 45 13 61 15 16 3 52 10
80 15 28 6 63 13 79 15 15 3 53 10 85 15 31 6 77 13 102 16 46 5 86 10 155 19
40 6 105 11 270 22 280 20 806 -2 1040 -43 17 -3 44 -7 60 -9 17 -2 41 -6 55
-9 14 -3 39 -7 55 -10 113 -19 264 -52 365 -81 104 -29 336 -105 361 -118 13
-7 27 -13 31 -15 27 -8 99 -46 127 -67 46 -32 93 -26 133 18 15 17 28 36 28
40 0 8 9 30 55 133 7 17 39 89 70 160 31 72 63 145 72 164 72 158 82 212 46
249 -46 49 -77 49 -187 -2 -130 -60 -258 -84 -351 -64 -44 10 -141 54 -165 75
-120 109 -182 206 -273 425 -18 42 -70 79 -102 73 -11 -2 -25 -4 -31 -4 -5 -1
-50 -42 -100 -91 -360 -364 -562 -290 -811 300 -22 51 -29 69 -53 135 -32 87
-41 103 -67 120 -12 9 -23 13 -23 10 0 -3 -9 -1 -19 5 -14 7 -22 7 -26 0z
m-1705 -1701 c0 -5 -4 -9 -8 -9 -5 0 -9 7 -9 15 0 8 4 12 9 9 4 -3 8 -9 8 -15z"/>
<path d="M263 3812 c-106 -41 -150 -108 -166 -252 0 -3 3 -18 8 -35 29 -110
125 -188 230 -187 30 0 88 8 93 12 1 1 5 3 10 4 24 7 72 44 97 77 89 119 59
283 -65 360 -55 35 -147 44 -207 21z"/>
<path d="M4979 3822 c-52 -16 -102 -47 -131 -82 -119 -139 -46 -359 132 -397
41 -9 80 -10 80 -2 0 5 6 6 14 3 22 -8 97 30 134 69 115 119 76 322 -74 389
-46 20 -122 30 -155 20z"/>
<path d="M2407 2724 c-1 -2 -45 -6 -97 -9 -159 -11 -194 -14 -230 -19 -19 -3
-53 -8 -75 -11 -22 -3 -53 -7 -70 -10 -16 -3 -46 -7 -65 -10 -19 -2 -46 -7
-60 -10 -14 -3 -36 -7 -50 -10 -14 -3 -45 -8 -70 -11 -25 -3 -48 -8 -53 -11
-4 -2 -20 -6 -35 -9 -54 -9 -267 -66 -341 -91 -42 -14 -80 -26 -86 -27 -5 -1
-16 -5 -22 -9 -7 -5 -13 -6 -13 -2 0 3 -10 0 -22 -7 -13 -7 -25 -13 -28 -14
-3 0 -21 -7 -40 -15 -19 -7 -38 -12 -42 -11 -5 1 -8 -3 -8 -8 0 -6 -6 -10 -14
-10 -8 0 -45 -14 -83 -32 -37 -17 -70 -32 -73 -32 -24 -5 -131 -74 -140 -91
-40 -74 7 -156 88 -155 15 0 67 21 117 45 49 25 95 45 102 45 7 0 13 5 13 11
0 5 4 8 9 4 5 -3 12 -1 16 5 4 6 11 8 16 5 5 -4 9 -1 9 4 0 6 6 11 13 11 8 0
28 7 46 16 17 9 37 17 44 18 7 2 19 6 27 9 25 10 172 59 184 61 6 2 31 9 56
16 25 7 50 14 55 16 129 31 237 54 320 70 41 8 60 12 60 14 0 1 20 3 45 5 72
8 115 13 115 15 0 3 85 12 235 26 188 17 493 21 700 9 180 -10 215 -12 215
-15 0 -1 23 -3 50 -5 28 -2 66 -5 85 -8 19 -3 58 -9 85 -12 28 -4 61 -9 75
-11 14 -3 39 -7 55 -9 17 -2 41 -7 55 -10 14 -4 39 -8 55 -11 79 -14 347 -81
430 -109 77 -25 185 -66 232 -86 23 -11 45 -19 49 -19 3 0 56 -24 118 -54 61
-30 120 -56 131 -57 55 -6 105 45 105 107 0 27 -7 43 -30 64 -33 31 -153 92
-300 153 -14 5 -29 11 -35 13 -5 1 -46 17 -90 33 -44 17 -89 33 -100 35 -11 2
-33 9 -48 15 -24 9 -143 43 -197 56 -8 2 -35 8 -60 15 -25 6 -54 12 -65 15
-11 2 -31 6 -45 10 -14 3 -34 8 -45 9 -11 2 -36 7 -55 10 -124 23 -148 27
-260 41 -30 3 -71 9 -90 12 -19 3 -59 6 -87 7 -29 0 -53 3 -53 6 0 3 -28 6
-63 7 -110 5 -666 10 -670 7z"/>
<path d="M2537 2434 c-1 -1 -63 -5 -137 -8 -74 -4 -151 -9 -170 -11 -19 -2
-60 -6 -90 -9 -80 -8 -195 -23 -250 -33 -14 -2 -38 -6 -55 -8 -16 -3 -37 -6
-45 -8 -20 -5 -78 -16 -110 -21 -30 -5 -233 -54 -275 -66 -16 -5 -55 -17 -85
-27 -30 -9 -57 -18 -60 -18 -36 -6 -249 -89 -345 -135 -77 -36 -99 -60 -93
-100 3 -16 1 -30 -4 -30 -5 0 -6 -5 -2 -11 8 -13 13 -72 30 -329 9 -154 14
-174 43 -197 24 -19 49 -12 231 55 19 6 31 10 50 15 8 2 22 6 30 9 14 6 74 23
215 64 33 9 69 18 80 20 11 1 52 10 90 19 39 10 84 19 100 22 17 3 62 11 100
19 39 8 84 16 100 18 17 2 64 9 105 15 150 22 197 26 390 36 63 4 118 8 121
11 4 2 10 0 14 -6 4 -6 11 -7 17 -4 8 5 151 9 161 4 1 -1 54 -3 117 -5 125 -5
239 -12 310 -19 25 -3 74 -8 110 -11 120 -10 185 -16 210 -21 42 -7 124 -17
143 -18 9 0 17 -3 17 -6 0 -3 12 -5 28 -4 15 0 43 -3 62 -8 19 -5 49 -11 65
-13 17 -2 64 -11 105 -20 41 -10 84 -19 95 -21 18 -3 88 -20 125 -30 8 -2 36
-9 63 -16 26 -6 47 -15 47 -20 0 -5 4 -7 9 -3 5 3 60 -13 123 -35 63 -23 122
-38 134 -35 30 7 50 42 58 100 3 28 8 61 11 75 3 14 8 45 10 70 3 25 10 70 16
100 6 30 12 69 14 85 2 17 6 49 9 73 8 66 -5 86 -78 121 -37 17 -68 31 -70 31
-2 0 -25 10 -52 22 -27 12 -51 23 -54 23 -3 1 -18 7 -33 13 -16 7 -34 12 -41
12 -6 0 -17 5 -24 12 -7 7 -12 8 -12 4 0 -5 -6 -4 -12 1 -7 6 -26 14 -43 18
-44 12 -45 12 -50 15 -5 3 -6 3 -50 15 -16 4 -34 10 -40 14 -11 6 -28 10 -57
13 -10 1 -18 6 -18 10 0 4 -9 8 -20 8 -11 0 -53 9 -94 20 -42 12 -86 23 -98
25 -13 3 -36 8 -53 12 -16 3 -39 8 -50 9 -24 3 -74 13 -95 19 -8 3 -32 7 -54
11 -21 3 -48 8 -60 10 -11 2 -41 7 -66 10 -25 3 -56 7 -70 9 -14 2 -56 7 -95
11 -38 4 -83 8 -100 10 -100 12 -538 26 -548 18z"/>
<path d="M2537 1613 c-2 -1 -63 -4 -137 -7 -74 -3 -135 -6 -135 -6 0 -2 -80
-9 -155 -14 -36 -3 -65 -6 -65 -6 0 -1 -13 -3 -30 -4 -16 -2 -48 -6 -71 -10
-23 -4 -59 -9 -80 -11 -54 -6 -106 -15 -184 -30 -14 -3 -38 -8 -55 -11 -43 -8
-60 -12 -60 -14 0 -1 -13 -3 -30 -6 -51 -7 -60 -9 -72 -17 -7 -5 -13 -6 -13
-3 0 2 -15 0 -32 -5 -18 -6 -43 -12 -55 -15 -35 -7 -287 -85 -298 -92 -5 -4
-12 -7 -15 -8 -38 -12 -63 -22 -114 -48 -49 -25 -63 -38 -72 -65 -27 -85 44
-156 129 -129 18 5 46 16 62 23 69 31 159 63 255 90 3 1 31 9 62 19 32 9 62
15 67 12 5 -4 11 -2 13 3 1 6 14 12 28 15 29 6 53 11 130 28 30 6 59 11 64 9
4 -1 14 3 20 9 7 5 15 8 17 5 3 -2 22 0 44 6 22 5 63 11 91 14 28 3 62 8 74
10 44 9 136 19 168 20 17 0 32 2 32 5 0 3 12 5 28 6 15 0 86 4 157 9 204 14
855 10 855 -5 0 -3 21 -5 48 -4 26 0 52 -2 57 -5 6 -3 28 -7 50 -7 22 -1 58
-5 80 -8 22 -3 58 -8 79 -11 22 -3 53 -8 70 -11 17 -3 42 -8 56 -9 74 -10 236
-42 260 -52 8 -3 24 -7 35 -9 24 -3 174 -43 195 -51 8 -4 17 -7 20 -8 44 -11
206 -70 273 -100 73 -32 147 17 147 97 0 35 -32 76 -74 94 -97 41 -125 53
-196 77 -99 34 -324 97 -368 103 -19 2 -38 6 -42 9 -7 4 -52 13 -100 20 -8 1
-26 5 -40 8 -14 4 -38 9 -55 11 -16 3 -41 7 -55 10 -14 2 -45 7 -70 10 -25 3
-58 8 -75 11 -16 2 -47 7 -69 10 -21 3 -42 8 -47 11 -5 3 -9 0 -9 -6 0 -6 -5
-8 -11 -5 -15 10 -131 21 -324 31 -105 5 -455 11 -458 7z"/>
<path d="M1241 1129 c-41 -40 -43 -94 -5 -138 14 -17 28 -30 32 -29 4 1 14 -1
22 -5 8 -3 26 -8 40 -10 14 -3 34 -7 45 -10 69 -17 201 -44 250 -52 17 -2 43
-7 59 -10 15 -3 47 -8 70 -10 22 -2 52 -6 66 -9 14 -2 57 -7 95 -11 39 -3 86
-8 105 -10 19 -2 69 -7 110 -10 41 -4 77 -8 79 -11 2 -2 10 1 18 7 7 6 13 8
13 3 0 -23 778 -23 1000 0 19 2 68 7 108 10 40 4 94 9 120 12 99 13 118 15
157 18 22 2 40 5 40 6 0 2 34 9 85 16 25 3 54 8 65 11 11 2 34 7 50 9 27 5 84
18 125 28 8 3 37 9 63 15 64 15 94 36 106 74 13 39 8 68 -16 101 -25 35 -71
42 -151 21 -37 -9 -76 -19 -87 -21 -90 -18 -133 -26 -152 -29 -12 -2 -34 -6
-50 -9 -15 -3 -46 -8 -68 -11 -22 -3 -53 -7 -70 -10 -28 -4 -46 -6 -160 -20
-22 -2 -78 -7 -125 -11 -47 -3 -101 -8 -120 -10 -107 -12 -527 -17 -745 -9
-170 7 -387 21 -440 30 -16 2 -50 7 -75 10 -100 11 -229 30 -284 41 -11 2 -37
7 -56 10 -32 5 -103 22 -190 44 -65 17 -96 12 -129 -21z"/>
</g>
</svg>
