<svg width="9" height="16" viewBox="0 0 9 16" fill="none" xmlns="http://www.w3.org/2000/svg">
<path d="M5.97567 7.99662L0.244617 13.9824C0.0868113 14.1469 1.84239e-07 14.3667 1.57798e-07 14.6011C1.31341e-07 14.8356 0.0868112 15.0553 0.244617 15.22L0.746802 15.7443C0.904358 15.9092 1.11497 16 1.33941 16C1.56385 16 1.77422 15.9092 1.9319 15.7443L8.75563 8.61763C8.91393 8.45242 9.00062 8.23168 9 7.99701C9.00062 7.7613 8.91406 7.54081 8.75563 7.37548L1.93825 0.255741C1.78057 0.0907969 1.57021 4.50277e-07 1.34564 4.35062e-07C1.1212 4.19855e-07 0.910837 0.0907969 0.753032 0.255741L0.250971 0.779968C-0.0757248 1.12117 -0.0757249 1.67662 0.250971 2.01769L5.97567 7.99662Z" fill="white"/>
</svg>
