<svg width="36" height="22" fill="none" xmlns="http://www.w3.org/2000/svg"><path d="M22.18 11c0 6.076-4.963 11-11.09 11C4.964 22 0 17.075 0 11S4.966 0 11.09 0c6.125 0 11.09 4.925 11.09 11z" fill="#E2574C"/><path d="M24.406 0c-2.487 0-4.777.822-6.627 2.193l.008.002c.364.348.766.594 1.075.995l-2.307.036c-.362.362-.691.756-1.002 1.165h4.07c.309.369.595.689.855 1.096h-5.663c-.207.354-.399.718-.566 1.096h6.873c.18.378.34.663.477 1.062h-7.758c-.123.38-.228.768-.308 1.164h8.391c.082.38.146.732.189 1.091h-8.746c-.037.362-.056.73-.056 1.1h8.865c0 .39-.028.75-.068 1.1h-8.742c.038.373.094.74.167 1.1h8.378c-.087.357-.187.715-.312 1.087h-7.783c.117.376.26.741.417 1.098h6.89c-.192.4-.408.72-.646 1.095h-5.681c.224.385.471.753.74 1.105l4.086.06c-.348.415-.795.665-1.202 1.027.022.018-.651-.002-1.977-.023A11.098 11.098 0 0024.406 22C30.533 22 35.5 17.075 35.5 11S30.534 0 24.406 0z" fill="#F4B459"/></svg>