<svg width="29" height="28" viewBox="0 0 29 28" fill="none" xmlns="http://www.w3.org/2000/svg">
<path fill-rule="evenodd" clip-rule="evenodd" d="M14.1073 27.7594H14.1015C11.7601 27.7586 9.45949 27.176 7.41615 26.0706L0 28L1.98469 20.8103C0.760435 18.7061 0.11624 16.3192 0.11729 13.8738C0.120359 6.22387 6.39614 0 14.1071 0C17.8495 0.00160191 21.3621 1.44654 24.0033 4.06915C26.6446 6.69163 28.0984 10.1775 28.0969 13.8848C28.0938 21.533 21.8205 27.7563 14.1073 27.7594ZM7.75986 23.5586L8.18445 23.8085C9.96971 24.8592 12.0162 25.4152 14.1027 25.416H14.1074C20.5162 25.416 25.7323 20.2426 25.7349 13.8838C25.7361 10.8023 24.5278 7.905 22.3325 5.72519C20.1372 3.54537 17.2177 2.34433 14.1119 2.34326C7.69816 2.34326 2.48195 7.51614 2.4794 13.8744C2.4785 16.0535 3.09324 18.1756 4.25719 20.0117L4.53366 20.448L3.35901 24.7035L7.75986 23.5586ZM20.6765 16.8719C20.9203 16.9887 21.085 17.0677 21.1553 17.184C21.2426 17.3286 21.2426 18.0227 20.9515 18.8327C20.6601 19.6424 19.2636 20.3815 18.5919 20.481C17.9897 20.5703 17.2276 20.6076 16.3903 20.3437C15.8826 20.1839 15.2315 19.9706 14.3976 19.6134C11.1205 18.21 8.90596 15.06 8.4874 14.4646C8.45808 14.4229 8.43757 14.3938 8.42613 14.3786L8.42331 14.3749C8.23832 14.1301 6.99881 12.4899 6.99881 10.7923C6.99881 9.19539 7.78974 8.35837 8.1538 7.97309C8.17874 7.94669 8.20168 7.92242 8.22223 7.90016C8.54263 7.55308 8.92135 7.46631 9.15437 7.46631C9.38737 7.46631 9.62066 7.46844 9.82433 7.47859C9.84945 7.47984 9.87559 7.47969 9.90262 7.47953C10.1063 7.47835 10.3603 7.47687 10.6108 8.0737C10.7072 8.30337 10.8482 8.64386 10.9969 9.00297C11.2977 9.72925 11.6301 10.5317 11.6885 10.6479C11.776 10.8214 11.8342 11.0238 11.7177 11.2553C11.7002 11.29 11.684 11.3227 11.6686 11.354C11.5811 11.5312 11.5167 11.6615 11.3681 11.8336C11.3097 11.9012 11.2494 11.9741 11.189 12.047C11.0688 12.1923 10.9485 12.3375 10.8438 12.4409C10.6688 12.6138 10.4866 12.8014 10.6905 13.1485C10.8944 13.4955 11.596 14.6308 12.6351 15.5501C13.7522 16.5383 14.7231 16.9559 15.2152 17.1676C15.3113 17.209 15.3891 17.2424 15.4462 17.2708C15.7956 17.4444 15.9996 17.4153 16.2035 17.184C16.4074 16.9527 17.0773 16.1717 17.3103 15.8247C17.5433 15.4777 17.7764 15.5355 18.0968 15.6512C18.4172 15.767 20.1358 16.6056 20.4854 16.7791C20.5536 16.813 20.6174 16.8435 20.6765 16.8719Z" fill="#FDFDFD"/>
</svg>
