<svg xmlns="http://www.w3.org/2000/svg" xmlns:xlink="http://www.w3.org/1999/xlink"><defs><linearGradient id="paint0_linear" x1="32.374" y1="22.198" x2="32.994" y2="-.152" gradientUnits="userSpaceOnUse"><stop stop-color="#222357"/><stop offset="1" stop-color="#254AA5"/></linearGradient><linearGradient id="paint0_linear" x1="56.924" y1="4.363" x2="79.972" y2="4.363" gradientUnits="userSpaceOnUse"><stop stop-color="#00A0E5"/><stop offset="1" stop-color="#0077C3"/></linearGradient><clipPath id="clip0"><path fill="#fff" transform="translate(.495)" d="M0 0h79.505v21.761H0z"/></clipPath></defs><symbol id="logo-visa"><path d="M36.303 6.957c-.04 3.031 2.742 4.723 4.838 5.729 2.153 1.032 2.876 1.694 2.867 2.616-.016 1.413-1.717 2.036-3.309 2.06-2.777.043-4.392-.738-5.676-1.33l-1 4.613c1.288.584 3.673 1.094 6.146 1.117 5.806 0 9.604-2.823 9.624-7.2.023-5.555-7.8-5.863-7.746-8.346.018-.752.748-1.556 2.346-1.76.79-.103 2.974-.182 5.45.94l.971-4.461C49.483.457 47.772 0 45.642 0c-5.465 0-9.308 2.862-9.34 6.957zM60.15.384a2.52 2.52 0 00-2.352 1.544l-8.293 19.506h5.801l1.155-3.143h7.089l.67 3.143h5.113L64.872.384H60.15zm.812 5.687l1.674 7.904h-4.585l2.91-7.904zM29.269.385l-4.573 21.048h5.528L34.795.384H29.27zm-8.178 0L15.337 14.71 13.009 2.53C12.736 1.17 11.658.384 10.46.384H1.055L.922.996c1.931.412 4.125 1.078 5.454 1.79.814.436 1.046.816 1.313 1.85l4.408 16.798h5.842L26.896.384h-5.805" fill="url(#paint0_linear)"/></symbol><symbol id="logo-mastercard"><path d="M22.18 11c0 6.076-4.963 11-11.09 11C4.964 22 0 17.075 0 11S4.966 0 11.09 0c6.125 0 11.09 4.925 11.09 11z" fill="#E2574C"/><path d="M24.406 0c-2.487 0-4.777.822-6.627 2.193l.008.002c.364.348.766.594 1.075.995l-2.307.036c-.362.362-.691.756-1.002 1.165h4.07c.309.369.595.689.855 1.096h-5.663c-.207.354-.399.718-.566 1.096h6.873c.18.378.34.663.477 1.062h-7.758c-.123.38-.228.768-.308 1.164h8.391c.082.38.146.732.189 1.091h-8.746c-.037.362-.056.73-.056 1.1h8.865c0 .39-.028.75-.068 1.1h-8.742c.038.373.094.74.167 1.1h8.378c-.087.357-.187.715-.312 1.087h-7.783c.117.376.26.741.417 1.098h6.89c-.192.4-.408.72-.646 1.095h-5.681c.224.385.471.753.74 1.105l4.086.06c-.348.415-.795.665-1.202 1.027.022.018-.651-.002-1.977-.023A11.098 11.098 0 0024.406 22C30.533 22 35.5 17.075 35.5 11S30.534 0 24.406 0z" fill="#F4B459"/></symbol><symbol id="logo-mir"><g clip-path="url(#clip0)" fill-rule="evenodd" clip-rule="evenodd"><path d="M57.838 9.831v11.93h6.854v-7.07h7.768c3.27-.023 6.046-2.042 7.094-4.86H57.838z" fill="#37A72E"/><path d="M56.924 0c.4 4.876 5.17 8.727 10.997 8.727h11.917c.088-.448.134-.91.134-1.381 0-4.04-3.37-7.316-7.54-7.346H56.925z" fill="url(#paint0_linear)"/><path d="M46.782 8.61l.005-.01a.414.414 0 01.36-.205c.224 0 .405.172.412.387V21.65h6.854V0h-6.854c-.87.028-1.851.645-2.217 1.402l-5.454 11.311a.433.433 0 01-.062.128l-.002.004a.461.461 0 01-.376.19.45.45 0 01-.457-.442V0h-6.854v21.65h6.854v-.002c.86-.043 1.819-.653 2.179-1.399l5.598-11.61a.425.425 0 01.014-.028zM21.188 8.98l-4.006 12.67h-4.93L8.243 8.974a.448.448 0 00-.443-.357.444.444 0 00-.451.442v12.593H.495V0H8.13c1.26 0 2.582.946 2.95 2.112l3.336 10.55c.166.525.436.525.601 0l3.336-10.55C18.722.946 20.043 0 21.304 0H28.938v21.65h-6.854V9.059v-.005a.444.444 0 00-.45-.437.447.447 0 00-.446.365z" fill="#37A72E"/></g></symbol></svg>