<svg width="10" height="16" viewBox="0 0 10 16" fill="none" xmlns="http://www.w3.org/2000/svg">
<path d="M6.92603 7.99662L1.18001 13.9824C1.02179 14.1469 0.934754 14.3667 0.934754 14.6011C0.934754 14.8356 1.02179 15.0553 1.18001 15.22L1.68351 15.7443C1.84147 15.9092 2.05264 16 2.27766 16C2.50269 16 2.7136 15.9092 2.87169 15.7443L9.71324 8.61763C9.87196 8.45242 9.95887 8.23168 9.95825 7.99701C9.95887 7.7613 9.87209 7.54081 9.71324 7.37548L2.87806 0.25574C2.71997 0.0907967 2.50906 2.38723e-07 2.28391 2.17114e-07C2.05888 1.95517e-07 1.84797 0.0907966 1.68975 0.25574L1.18638 0.779967C0.85883 1.12117 0.85883 1.67662 1.18638 2.01769L6.92603 7.99662Z" fill="#D3D3D5"/>
</svg>
