<svg width="70" height="22" fill="none" xmlns="http://www.w3.org/2000/svg"><path d="M36.303 6.957c-.04 3.031 2.742 4.723 4.838 5.729 2.153 1.032 2.876 1.694 2.867 2.616-.016 1.413-1.717 2.036-3.309 2.06-2.777.043-4.392-.738-5.676-1.33l-1 4.613c1.288.584 3.673 1.094 6.146 1.117 5.806 0 9.604-2.823 9.624-7.2.023-5.555-7.8-5.863-7.746-8.346.018-.752.748-1.556 2.346-1.76.79-.103 2.974-.182 5.45.94l.971-4.461C49.483.457 47.772 0 45.642 0c-5.465 0-9.308 2.862-9.34 6.957zM60.15.384a2.52 2.52 0 00-2.352 1.544l-8.293 19.506h5.801l1.155-3.143h7.089l.67 3.143h5.113L64.872.384H60.15zm.812 5.687l1.674 7.904h-4.585l2.91-7.904zM29.269.385l-4.573 21.048h5.528L34.795.384H29.27zm-8.178 0L15.337 14.71 13.009 2.53C12.736 1.17 11.658.384 10.46.384H1.055L.922.996c1.931.412 4.125 1.078 5.454 1.79.814.436 1.046.816 1.313 1.85l4.408 16.798h5.842L26.896.384h-5.805" fill="url(#paint0_linear)"/><defs><linearGradient id="paint0_linear" x1="32.374" y1="22.198" x2="32.994" y2="-.152" gradientUnits="userSpaceOnUse"><stop stop-color="#222357"/><stop offset="1" stop-color="#254AA5"/></linearGradient></defs></svg>