<svg width="80" height="22" fill="none" xmlns="http://www.w3.org/2000/svg"><g clip-path="url(#clip0)" fill-rule="evenodd" clip-rule="evenodd"><path d="M57.838 9.831v11.93h6.854v-7.07h7.768c3.27-.023 6.046-2.042 7.094-4.86H57.838z" fill="#37A72E"/><path d="M56.924 0c.4 4.876 5.17 8.727 10.997 8.727h11.917c.088-.448.134-.91.134-1.381 0-4.04-3.37-7.316-7.54-7.346H56.925z" fill="url(#paint0_linear)"/><path d="M46.782 8.61l.005-.01a.414.414 0 01.36-.205c.224 0 .405.172.412.387V21.65h6.854V0h-6.854c-.87.028-1.851.645-2.217 1.402l-5.454 11.311a.433.433 0 01-.062.128l-.002.004a.461.461 0 01-.376.19.45.45 0 01-.457-.442V0h-6.854v21.65h6.854v-.002c.86-.043 1.819-.653 2.179-1.399l5.598-11.61a.425.425 0 01.014-.028zM21.188 8.98l-4.006 12.67h-4.93L8.243 8.974a.448.448 0 00-.443-.357.444.444 0 00-.451.442v12.593H.495V0H8.13c1.26 0 2.582.946 2.95 2.112l3.336 10.55c.166.525.436.525.601 0l3.336-10.55C18.722.946 20.043 0 21.304 0H28.938v21.65h-6.854V9.059v-.005a.444.444 0 00-.45-.437.447.447 0 00-.446.365z" fill="#37A72E"/></g><defs><linearGradient id="paint0_linear" x1="56.924" y1="4.363" x2="79.972" y2="4.363" gradientUnits="userSpaceOnUse"><stop stop-color="#00A0E5"/><stop offset="1" stop-color="#0077C3"/></linearGradient><clipPath id="clip0"><path fill="#fff" transform="translate(.495)" d="M0 0h79.505v21.761H0z"/></clipPath></defs></svg>